<?xml version="1.0" encoding="UTF-8"?>
<!DOCTYPE svg PUBLIC "-//W3C//DTD SVG 1.1//EN" "http://www.w3.org/Graphics/SVG/1.1/DTD/svg11.dtd">
<svg version="1.1" xmlns="http://www.w3.org/2000/svg" xmlns:xlink="http://www.w3.org/1999/xlink" x="0" y="0" width="400.95" height="159.396" viewBox="0, 0, 400.95, 159.396">
  <g id="Layer_2" transform="translate(-82.324, -247.201)">
    <path d="M129.698,328.055 L129.27,327.761 L128.765,327.308 L128.456,326.904 L128.236,326.494 L128.088,326.072 L128,325.625 L127.97,325.146 L128.001,324.627 L128.101,324.067 L128.276,323.471 L128.533,322.846 L128.876,322.203 L129.307,321.552 L129.827,320.904 L130.437,320.27 L131.136,319.66 L131.469,319.407 L131.354,319.493 L131.845,319.144 L132.659,318.669 L133.427,318.333 L134.214,318.079 L135.023,317.904 L135.853,317.804 L136.702,317.777 L137.568,317.822 L138.444,317.938 L139.326,318.123 L140.206,318.374 L141.076,318.69 L141.929,319.065 L142.758,319.496 L143.553,319.978 L144.308,320.505 L145.015,321.072 L145.667,321.672 L146.257,322.297 L146.778,322.94 L147.226,323.593 L147.595,324.246 L147.883,324.892 L148.089,325.522 L148.214,326.129 L148.26,326.708 L148.231,327.261 L148.129,327.791 L147.953,328.31 L147.696,328.83 L147.344,329.363 L146.877,329.915 L146.653,330.135 L146.745,330.042 L146.085,330.681 L144.793,331.823 L143.439,332.89 L141.995,333.913 L140.465,334.894 L138.854,335.832 L137.167,336.727 L135.411,337.58 L133.59,338.392 L131.71,339.163 L129.777,339.894 L127.798,340.585 L124.738,341.557 L120.558,342.723 L116.312,343.752 L112.03,344.659 L107.757,345.458 L103.54,346.162 L99.423,346.784 L95.451,347.337 L91.667,347.836 L88.98,348.182 L87.267,348.404 L86.435,348.513 L86.435,348.513 C84.792,348.728 83.635,350.234 83.85,351.877 C84.065,353.52 85.571,354.677 87.214,354.462 C87.214,354.462 87.214,354.462 87.214,354.462 L88.037,354.354 L89.747,354.133 L92.451,353.784 L96.279,353.28 L100.319,352.717 L104.528,352.08 L108.861,351.356 L113.275,350.528 L117.727,349.582 L122.173,348.502 L126.556,347.275 L129.78,346.249 L131.903,345.505 L133.99,344.713 L136.037,343.87 L138.038,342.975 L139.987,342.023 L141.881,341.012 L143.712,339.939 L145.475,338.801 L147.165,337.593 L148.774,336.313 L150.262,334.989 L150.921,334.35 L150.921,334.35 C150.953,334.319 150.983,334.288 151.013,334.257 L151.013,334.257 L151.583,333.636 L152.479,332.467 L153.195,331.232 L153.725,329.948 L154.069,328.638 L154.23,327.324 L154.221,326.026 L154.055,324.758 L153.749,323.532 L153.319,322.352 L152.777,321.222 L152.135,320.143 L151.402,319.116 L150.586,318.143 L149.695,317.225 L148.735,316.364 L147.71,315.563 L146.627,314.825 L145.49,314.154 L144.305,313.555 L143.074,313.032 L141.805,312.591 L140.5,312.239 L139.165,311.982 L137.805,311.827 L136.427,311.784 L135.039,311.859 L133.649,312.064 L132.268,312.404 L130.908,312.887 L129.584,313.517 L128.373,314.251 L127.881,314.6 L127.881,314.6 C127.842,314.628 127.804,314.656 127.766,314.686 L127.766,314.686 L127.134,315.189 L126.055,316.172 L125.089,317.223 L124.242,318.335 L123.518,319.502 L122.924,320.716 L122.467,321.971 L122.156,323.26 L122.002,324.572 L122.016,325.894 L122.212,327.207 L122.596,328.489 L123.172,329.711 L123.932,330.845 L124.866,331.868 L125.87,332.704 L126.297,332.999 C126.297,332.999 126.297,332.999 126.297,332.999 C127.663,333.938 129.53,333.592 130.469,332.227 C131.408,330.862 131.063,328.994 129.698,328.055 L129.698,328.055" fill="#26677C"/>
    <path d="M127.925,349.883 L127.566,350.45 L126.854,351.768 L126.273,353.161 L125.862,354.558 L125.621,355.95 L125.55,357.323 L125.648,358.665 L125.912,359.959 L126.336,361.19 L126.915,362.341 L127.641,363.397 L128.503,364.341 L129.489,365.158 L130.586,365.833 L131.779,366.354 L133.05,366.709 L134.381,366.889 L135.754,366.888 L137.151,366.704 L138.555,366.335 L139.954,365.782 L141.335,365.048 L142.69,364.132 L144.013,363.035 L145.298,361.758 L146.541,360.297 L147.739,358.648 L148.887,356.808 L149.981,354.771 L151.018,352.531 L151.993,350.081 L152.901,347.414 L153.339,345.964 L147.484,345.436 L147.578,346.267 L147.907,348.143 L148.402,350.064 L149.04,351.94 L149.81,353.755 L150.703,355.486 L151.71,357.114 L152.829,358.618 L154.061,359.974 L155.414,361.157 L156.903,362.133 L158.551,362.853 L159.98,363.194 L161.025,363.28 L162.007,363.228 L162.995,363.046 L163.968,362.732 L164.909,362.29 L165.806,361.728 L166.653,361.055 L167.11,360.631 L167.11,360.631 C167.17,360.573 167.228,360.514 167.283,360.452 L167.283,360.452 L167.528,360.176 L168.225,359.13 L168.753,357.844 L169.024,356.54 L169.103,355.256 L169.046,353.992 L168.891,352.736 L168.663,351.476 L168.383,350.204 L168.063,348.917 L167.541,346.964 L166.821,344.295 L166.164,341.605 L165.661,338.953 L165.442,337.057 L165.386,335.864 L165.406,334.684 L165.512,333.557 L165.71,332.491 L166.003,331.488 L166.395,330.547 L166.894,329.661 L167.511,328.822 L168.266,328.019 L169.181,327.247 L170.283,326.504 L171.216,325.988 L171.9,325.658 L172.677,325.322 L173.516,325 L173.932,324.855 L173.932,324.855 C175.494,324.303 176.314,322.59 175.762,321.027 C175.211,319.465 173.498,318.645 171.935,319.197 L171.35,319.405 L170.275,319.824 L169.253,320.273 L168.252,320.772 L166.861,321.576 L165.232,322.73 L163.813,323.998 L162.605,325.367 L161.609,326.82 L160.818,328.333 L160.221,329.885 L159.8,331.458 L159.535,333.037 L159.406,334.613 L159.394,336.181 L159.484,337.769 L159.768,340.078 L160.336,343.032 L161.028,345.858 L161.745,348.513 L162.241,350.367 L162.526,351.508 L162.762,352.56 L162.941,353.508 L163.056,354.332 L163.108,355.007 L163.113,355.51 L163.102,355.828 L163.115,355.985 L163.041,356.193 L162.796,356.468 L162.968,356.289 L162.846,356.418 L162.522,356.706 L162.237,356.918 L161.985,357.069 L161.759,357.175 L161.544,357.246 L161.323,357.287 L161.167,357.313 L160.807,357.293 L160.105,357.06 L159.311,356.595 L158.469,355.903 L157.62,355.006 L156.797,353.932 L156.025,352.715 L155.324,351.387 L154.712,349.983 L154.204,348.538 L153.813,347.087 L153.54,345.598 L153.447,344.766 L153.447,344.766 C153.313,343.572 152.479,342.573 151.329,342.228 C149.742,341.751 148.069,342.651 147.592,344.238 L147.592,344.238 L147.219,345.487 L146.414,347.872 L145.568,350.022 L144.688,351.946 L143.785,353.65 L142.87,355.142 L141.951,356.433 L141.04,357.531 L140.147,358.447 L139.282,359.194 L138.455,359.784 L137.672,360.233 L136.94,360.557 L136.26,360.771 L135.635,360.89 L135.062,360.928 L134.537,360.896 L134.055,360.802 L133.614,360.653 L133.21,360.451 L132.842,360.197 L132.51,359.891 L132.217,359.533 L131.968,359.12 L131.767,358.65 L131.624,358.123 L131.547,357.535 L131.547,356.887 L131.639,356.178 L131.835,355.411 L132.149,354.59 L132.636,353.659 L132.995,353.092 C133.881,351.692 133.465,349.839 132.065,348.953 C130.665,348.067 128.812,348.483 127.925,349.883 L127.925,349.883" fill="#26677C"/>
    <path d="M198.611,336.8 L198.068,337.145 L197.093,337.748 L196.244,338.253 L195.512,338.665 L194.896,338.988 L194.402,339.223 L194.037,339.371 L193.822,339.433 L193.8,339.418 L194.052,339.364 L194.696,339.405 L195.681,339.855 L196.446,340.756 L196.697,341.519 L196.723,341.892 L196.73,341.975 L196.829,341.733 L197.103,341.128 L197.502,340.314 L197.989,339.342 L198.777,337.711 L199.515,335.946 L199.932,334.656 L200.109,333.92 L200.109,333.92 C200.123,333.857 200.135,333.794 200.145,333.731 L200.145,333.731 L200.195,333.415 L200.263,332.533 L200.212,331.555 L200.01,330.586 L199.645,329.654 L199.12,328.795 L198.457,328.048 L197.69,327.435 L196.856,326.963 L195.984,326.622 L195.09,326.398 L194.184,326.278 L193.271,326.248 L192.351,326.301 L191.426,326.431 L190.496,326.633 L189.14,327.053 L187.302,327.85 L185.437,328.935 L183.615,330.295 L182.265,331.527 L181.388,332.449 L180.571,333.413 L179.788,334.449 L179.043,335.557 L178.341,336.736 L177.687,337.986 L177.085,339.308 L176.79,340.033 L176.79,340.033 C176.781,340.054 176.773,340.075 176.765,340.096 L176.765,340.096 L176.512,340.766 L176.034,342.151 L175.619,343.525 L175.278,344.861 L175.01,346.16 L174.813,347.424 L174.686,348.652 L174.631,349.846 L174.645,351.005 L174.73,352.128 L174.885,353.216 L175.11,354.266 L175.405,355.276 L175.769,356.245 L176.201,357.168 L176.699,358.043 L177.26,358.866 L177.88,359.633 L178.555,360.342 L179.28,360.992 L180.05,361.579 L180.86,362.105 L182.092,362.754 L183.849,363.431 L185.742,363.899 L187.7,364.147 L189.703,364.185 L191.737,364.024 L193.788,363.672 L195.844,363.133 L197.89,362.412 L199.914,361.511 L201.901,360.433 L203.837,359.179 L205.707,357.75 L207.494,356.147 L209.181,354.371 L210.752,352.422 L212.189,350.303 L213.184,348.576 L213.798,347.362 L214.354,346.135 L214.863,344.866 L215.324,343.558 L215.734,342.211 L216.092,340.825 L216.395,339.401 L216.531,338.644 L216.531,338.644 C216.535,338.623 216.538,338.602 216.542,338.581 L216.542,338.581 L216.634,337.991 L216.79,336.737 L216.894,335.477 L216.94,334.243 L216.929,333.034 L216.862,331.851 L216.74,330.695 L216.564,329.566 L216.21,327.964 L215.564,325.919 L214.717,323.962 L213.691,322.138 L212.5,320.453 L211.161,318.911 L209.691,317.516 L208.107,316.268 L206.424,315.165 L204.657,314.206 L202.819,313.388 L200.922,312.709 L198.978,312.167 L196.997,311.759 L194.991,311.484 L192.97,311.34 L190.943,311.327 L188.921,311.445 L186.913,311.693 L184.93,312.072 L182.982,312.584 L181.079,313.228 L179.232,314.008 L177.452,314.925 L175.752,315.981 L174.144,317.18 L172.643,318.522 L171.264,320.009 L170.579,320.864 L170.579,320.864 C169.552,322.164 169.774,324.051 171.075,325.078 C172.375,326.104 174.261,325.882 175.288,324.582 L175.69,324.06 L176.669,322.971 L177.756,321.971 L178.944,321.062 L180.224,320.246 L181.587,319.526 L183.025,318.904 L184.525,318.382 L186.076,317.962 L187.668,317.645 L189.288,317.434 L190.924,317.327 L192.564,317.326 L194.195,317.431 L195.807,317.64 L197.387,317.952 L198.923,318.367 L200.405,318.881 L201.822,319.494 L203.164,320.202 L204.423,321.003 L205.59,321.896 L206.66,322.879 L207.627,323.953 L208.485,325.121 L209.229,326.387 L209.853,327.759 L210.356,329.28 L210.639,330.509 L210.775,331.342 L210.872,332.206 L210.929,333.104 L210.943,334.035 L210.913,335 L210.836,336 L210.706,337.066 L210.613,337.656 L210.624,337.594 L210.524,338.163 L210.28,339.337 L209.991,340.474 L209.661,341.576 L209.291,342.642 L208.882,343.673 L208.437,344.669 L207.973,345.603 L207.21,346.955 L206.067,348.674 L204.815,350.255 L203.469,351.697 L202.045,352.997 L200.556,354.156 L199.019,355.171 L197.452,356.04 L195.87,356.762 L194.292,357.337 L192.737,357.764 L191.223,358.046 L189.769,358.186 L188.393,358.187 L187.113,358.058 L185.942,357.807 L184.84,357.42 L184.082,357.043 L183.645,356.776 L183.239,356.483 L182.86,356.163 L182.509,355.815 L182.184,355.437 L181.885,355.025 L181.612,354.576 L181.367,354.086 L181.152,353.55 L180.968,352.967 L180.82,352.333 L180.71,351.645 L180.644,350.902 L180.625,350.102 L180.657,349.246 L180.744,348.332 L180.888,347.361 L181.095,346.332 L181.367,345.248 L181.706,344.107 L182.126,342.884 L182.379,342.214 L182.354,342.277 L182.553,341.777 L183.012,340.75 L183.506,339.788 L184.032,338.889 L184.586,338.052 L185.163,337.275 L185.76,336.558 L186.342,335.928 L187.246,335.072 L188.503,334.092 L189.739,333.332 L190.957,332.771 L191.82,332.485 L192.319,332.364 L192.771,332.287 L193.17,332.247 L193.506,332.239 L193.774,332.252 L193.968,332.273 L194.089,332.287 L194.146,332.277 L194.159,332.235 L194.155,332.164 L194.16,332.087 L194.188,332.039 L194.233,332.058 L194.274,332.169 L194.269,332.476 L194.219,332.791 L194.255,332.602 L194.208,332.86 L193.974,333.645 L193.374,335.102 L192.625,336.654 L192.106,337.69 L191.606,338.724 L191.166,339.752 L190.899,340.56 L190.758,341.245 L190.729,342.136 L191.023,343.323 L191.942,344.548 L193.2,345.216 L194.247,345.361 L195.04,345.289 L195.708,345.129 L196.342,344.91 L196.995,344.634 L197.695,344.296 L198.463,343.889 L199.311,343.409 L200.251,342.85 L201.281,342.212 L201.825,341.867 C201.825,341.867 201.825,341.867 201.825,341.867 C203.224,340.979 203.639,339.126 202.751,337.727 C201.864,336.327 200.01,335.913 198.611,336.8 L198.611,336.8" fill="#26677C"/>
    <path d="M216.826,348.111 L216.955,347.664 L217.201,347.055 L217.476,346.567 L217.801,346.116 L218.171,345.703 L218.579,345.333 L219.02,345.01 L219.486,344.739 L219.967,344.524 L220.455,344.367 L220.939,344.27 L221.41,344.235 L221.861,344.258 L222.288,344.338 L222.687,344.473 L223.063,344.663 L223.151,344.731 L222.975,344.625 L223.255,344.806 L223.559,345.063 L223.808,345.337 L224.078,345.685 L224.358,346.109 L224.64,346.605 L225.065,347.506 L225.552,348.862 L225.929,350.321 L226.196,351.855 L226.343,353.396 L226.364,354.875 L226.3,355.866 L226.225,356.45 L226.121,357.008 L225.996,357.494 L225.856,357.894 L225.712,358.195 L225.583,358.384 L225.495,358.453 L225.48,358.409 L225.567,358.285 L225.751,358.143 L225.968,358.043 L226.115,357.99 L226.12,357.935 L226.164,357.932 L226.432,358.076 L226.186,357.927 L226.368,357.995 L226.802,358.466 L227.032,359.019 L227.089,359.32 L227.162,359.302 L227.357,359.043 L227.698,358.625 L228.181,358.102 L228.794,357.507 L229.522,356.865 L230.353,356.189 L231.786,355.128 L233.94,353.71 L236.29,352.349 L238.773,351.089 L241.311,349.986 L243.176,349.303 L244.377,348.927 L245.568,348.608 L246.709,348.363 L247.789,348.195 L248.791,348.107 L249.702,348.1 L250.504,348.172 L251.181,348.315 L251.724,348.517 L251.838,348.589 L251.686,348.515 L252.132,348.747 L252.79,349.141 L253.26,349.487 L253.591,349.795 L253.797,350.051 L253.896,350.242 L253.918,350.363 L253.895,350.426 L253.857,350.457 L253.816,350.497 L253.71,350.743 L253.426,351.202 L252.958,351.791 L252.253,352.536 L251.338,353.365 L250.255,354.231 L249.053,355.104 L247.778,355.963 L246.475,356.793 L245.187,357.583 L243.955,358.324 L243.371,358.673 L243.371,358.673 C241.949,359.524 241.487,361.367 242.339,362.788 C243.19,364.21 245.032,364.672 246.454,363.821 L247.045,363.467 L248.326,362.697 L249.704,361.851 L251.138,360.934 L252.591,359.95 L254.025,358.898 L255.408,357.772 L256.706,356.558 L257.881,355.221 L258.878,353.707 L259.564,352.055 L259.812,350.721 L259.81,349.713 L259.642,348.703 L259.31,347.733 L258.832,346.831 L258.233,346.011 L257.53,345.269 L256.733,344.595 L255.844,343.977 L254.904,343.425 L254.457,343.193 L254.457,343.193 C254.407,343.167 254.357,343.142 254.305,343.119 L254.305,343.119 L253.567,342.807 L252.272,342.415 L250.947,342.188 L249.599,342.101 L248.229,342.133 L246.839,342.27 L245.43,342.501 L244.005,342.815 L242.567,343.206 L241.097,343.675 L238.909,344.488 L236.051,345.742 L233.272,347.162 L230.632,348.704 L228.207,350.312 L226.558,351.542 L225.534,352.382 L224.587,353.229 L223.722,354.087 L222.942,354.967 L222.252,355.89 L221.665,356.897 L221.223,358.058 L221.047,359.44 L221.345,360.961 L222.165,362.277 L223.069,363.054 L223.315,363.203 L223.315,363.203 C223.401,363.256 223.491,363.304 223.582,363.348 L223.582,363.348 L224.205,363.621 L225.309,363.935 L226.476,364.021 L227.634,363.84 L228.682,363.413 L229.555,362.812 L230.25,362.112 L230.794,361.359 L231.221,360.573 L231.558,359.76 L231.824,358.92 L232.03,358.052 L232.183,357.158 L232.291,356.202 L232.363,354.75 L232.313,352.792 L232.1,350.786 L231.725,348.77 L231.179,346.78 L230.467,344.895 L229.813,343.565 L229.29,342.692 L228.7,341.859 L228.032,341.075 L227.277,340.354 L226.512,339.767 L226.232,339.586 L226.232,339.586 C226.175,339.549 226.116,339.514 226.056,339.481 L226.056,339.481 L225.402,339.138 L224.247,338.679 L223.065,338.389 L221.879,338.258 L220.702,338.277 L219.548,338.434 L218.427,338.72 L217.345,339.127 L216.311,339.648 L215.333,340.277 L214.418,341.01 L213.576,341.844 L212.818,342.774 L212.155,343.795 L211.6,344.902 L211.189,346.003 L211.06,346.45 C211.06,346.45 211.06,346.45 211.06,346.45 C210.602,348.042 211.52,349.704 213.112,350.163 C214.704,350.622 216.367,349.703 216.826,348.111 L216.826,348.111" fill="#26677C"/>
    <path d="M264.846,364.107 L266.33,364.577 L269.423,365.397 L272.539,366.013 L275.619,366.418 L278.652,366.622 L281.63,366.636 L284.542,366.469 L287.379,366.131 L290.132,365.632 L292.792,364.983 L295.35,364.191 L297.798,363.268 L300.127,362.222 L302.328,361.061 L304.394,359.793 L306.316,358.427 L308.084,356.969 L309.691,355.425 L311.126,353.801 L312.378,352.101 L313.434,350.329 L314.279,348.489 L314.895,346.587 L315.258,344.632 L315.347,342.64 L315.138,340.634 L314.616,338.646 L313.992,337.137 L313.462,336.143 L312.878,335.225 L312.217,334.334 L311.483,333.471 L310.675,332.638 L309.795,331.837 L308.844,331.066 L307.822,330.327 L306.729,329.619 L306.125,329.259 L306.125,329.259 C306.101,329.245 306.077,329.231 306.052,329.217 L306.052,329.217 L305.041,328.655 L302.905,327.599 L300.736,326.704 L298.579,325.992 L296.438,325.461 L294.315,325.107 L292.216,324.927 L290.146,324.918 L288.111,325.074 L286.117,325.39 L284.167,325.859 L282.268,326.474 L280.424,327.226 L278.636,328.109 L276.908,329.113 L275.24,330.232 L273.635,331.457 L272.093,332.781 L270.614,334.199 L269.199,335.703 L267.848,337.288 L266.562,338.947 L265.34,340.675 L264.185,342.467 L263.096,344.316 L262.074,346.219 L261.12,348.169 L260.235,350.162 L259.42,352.193 L258.676,354.256 L258.004,356.346 L257.406,358.459 L256.884,360.59 L256.437,362.733 L256.069,364.884 L255.781,367.038 L255.573,369.189 L255.449,371.334 L255.41,373.466 L255.458,375.582 L255.594,377.677 L255.823,379.745 L256.145,381.782 L256.563,383.782 L257.081,385.741 L257.7,387.652 L258.425,389.511 L259.258,391.311 L260.203,393.045 L261.261,394.707 L262.437,396.289 L263.732,397.782 L265.147,399.178 L266.684,400.469 L268.341,401.645 L270.118,402.698 L272.012,403.62 L274.021,404.404 L276.142,405.045 L278.373,405.538 L280.713,405.878 L283.159,406.061 L285.712,406.086 L288.372,405.947 L289.785,405.812 L289.785,405.812 C289.808,405.81 289.831,405.807 289.854,405.805 L289.854,405.805 L291.298,405.63 L294.223,405.196 L297.109,404.663 L299.926,404.042 L302.672,403.341 L305.346,402.566 L307.945,401.726 L310.468,400.827 L312.912,399.878 L315.276,398.884 L317.558,397.854 L319.756,396.795 L321.869,395.715 L323.894,394.619 L325.831,393.516 L327.676,392.413 L329.428,391.317 L331.086,390.234 L332.648,389.173 L334.112,388.14 L335.475,387.143 L336.737,386.188 L337.896,385.282 L338.949,384.433 L339.895,383.648 L340.732,382.933 L341.459,382.296 L342.072,381.745 L342.571,381.285 L342.954,380.924 L343.218,380.669 L343.361,380.527 L343.393,380.495 L343.393,380.495 C344.564,379.323 344.562,377.423 343.389,376.253 C342.216,375.082 340.316,375.085 339.146,376.258 L339.148,376.256 L339.05,376.353 L338.834,376.561 L338.503,376.874 L338.058,377.285 L337.502,377.786 L336.836,378.371 L336.062,379.032 L335.183,379.763 L334.2,380.556 L333.116,381.404 L331.932,382.301 L330.651,383.239 L329.275,384.211 L327.805,385.211 L326.245,386.231 L324.595,387.264 L322.859,388.304 L321.038,389.343 L319.135,390.374 L317.151,391.391 L315.088,392.386 L312.949,393.354 L310.736,394.286 L308.451,395.176 L306.096,396.018 L303.673,396.804 L301.184,397.528 L298.631,398.184 L296.015,398.764 L293.34,399.261 L290.578,399.673 L289.133,399.848 L289.202,399.841 L288.048,399.956 L285.754,400.086 L283.591,400.077 L281.556,399.937 L279.645,399.674 L277.854,399.295 L276.178,398.806 L274.613,398.213 L273.152,397.521 L271.789,396.734 L270.521,395.856 L269.341,394.887 L268.248,393.831 L267.238,392.69 L266.31,391.465 L265.463,390.159 L264.696,388.775 L264.01,387.317 L263.404,385.789 L262.878,384.196 L262.434,382.543 L262.07,380.835 L261.786,379.078 L261.581,377.278 L261.456,375.44 L261.409,373.57 L261.439,371.674 L261.546,369.759 L261.728,367.829 L261.984,365.891 L262.312,363.951 L262.712,362.015 L263.181,360.088 L263.718,358.177 L264.322,356.286 L264.99,354.423 L265.72,352.592 L266.512,350.801 L267.362,349.053 L268.269,347.355 L269.231,345.712 L270.245,344.131 L271.309,342.616 L272.42,341.173 L273.577,339.806 L274.775,338.521 L276.013,337.323 L277.288,336.216 L278.598,335.204 L279.94,334.29 L281.312,333.479 L282.713,332.772 L284.142,332.174 L285.598,331.686 L287.084,331.311 L288.6,331.054 L290.148,330.918 L291.732,330.907 L293.354,331.029 L295.015,331.289 L296.719,331.696 L298.465,332.257 L300.253,332.981 L302.126,333.9 L303.137,334.462 L303.065,334.42 L303.484,334.666 L304.323,335.201 L305.086,335.743 L305.774,336.29 L306.39,336.839 L306.938,337.388 L307.42,337.937 L307.84,338.484 L308.201,339.028 L308.485,339.519 L308.84,340.272 L309.182,341.354 L309.35,342.463 L309.346,343.611 L309.166,344.802 L308.805,346.032 L308.259,347.293 L307.526,348.571 L306.611,349.85 L305.517,351.115 L304.252,352.352 L302.825,353.547 L301.243,354.687 L299.517,355.76 L297.655,356.754 L295.669,357.659 L293.566,358.463 L291.357,359.157 L289.052,359.73 L286.658,360.174 L284.187,360.479 L281.646,360.636 L279.044,360.635 L276.389,360.467 L273.69,360.124 L270.954,359.596 L268.143,358.857 L266.659,358.387 C266.659,358.387 266.659,358.387 266.659,358.387 C265.079,357.887 263.393,358.761 262.893,360.34 C262.392,361.92 263.266,363.606 264.846,364.107 L264.846,364.107" fill="#26677C"/>
    <path d="M316.607,353.887 L317.624,353.124 L319.502,351.875 L321.284,350.883 L323.005,350.1 L324.661,349.51 L326.247,349.098 L327.759,348.847 L329.194,348.743 L330.548,348.771 L331.82,348.918 L333.004,349.171 L334.099,349.516 L335.098,349.943 L335.998,350.436 L336.792,350.983 L337.475,351.569 L338.042,352.177 L338.488,352.789 L338.813,353.386 L339.019,353.948 L339.112,354.456 L339.108,354.897 L339.023,355.271 L338.872,355.593 L338.652,355.892 L338.338,356.2 L337.889,356.532 L337.26,356.883 L336.692,357.124 L336.251,357.279 L335.703,357.443 L335.092,357.591 L334.418,357.72 L333.678,357.827 L332.873,357.908 L332.002,357.961 L331.57,357.974 L331.641,357.973 L331.137,357.978 L330.278,357.947 L329.495,357.867 L328.747,357.742 L328.038,357.574 L327.368,357.364 L326.74,357.114 L326.153,356.827 L325.61,356.505 L325.108,356.148 L324.649,355.757 L324.23,355.333 L323.852,354.874 L323.512,354.377 L323.21,353.841 L322.947,353.262 L322.725,352.635 L322.546,351.956 L322.412,351.222 L322.329,350.43 L322.302,349.578 L322.335,348.664 L322.433,347.687 L322.602,346.646 L322.845,345.544 L323.169,344.379 L323.577,343.153 L324.073,341.867 L324.661,340.522 L325.344,339.12 L326.127,337.661 L327.011,336.146 L327.48,335.39 L327.465,335.413 L327.824,334.845 L328.516,333.752 L329.505,332.209 L330.742,330.319 L331.905,328.604 L333.014,327.041 L334.093,325.608 L335.163,324.28 L336.248,323.031 L337.372,321.836 L338.564,320.665 L339.849,319.493 L341.254,318.294 L342.807,317.046 L344.53,315.726 L345.944,314.679 L346.951,313.948 L348.019,313.184 L349.144,312.388 L349.727,311.979 L345.27,308.287 L344.829,309.26 L343.937,310.982 L343.004,312.549 L342.057,313.975 L341.379,314.917 L340.953,315.481 L340.545,316.002 L340.17,316.463 L339.836,316.86 L339.55,317.188 L339.321,317.441 L339.16,317.612 L339.128,317.644 L339.243,317.533 L338.883,317.862 L338.368,318.201 L337.838,318.435 L337.184,318.647 L336.412,318.822 L335.533,318.949 L334.567,319.023 L333.533,319.041 L331.86,318.967 L329.592,318.702 L327.404,318.299 L325.891,317.943 L324.967,317.694 L324.545,317.572 L324.61,317.591 L323.727,317.314 L322.189,316.744 L320.817,316.121 L319.56,315.438 L318.411,314.699 L317.364,313.91 L316.413,313.073 L315.553,312.192 L314.777,311.269 L314.082,310.307 L313.463,309.307 L312.917,308.272 L312.441,307.204 L312.033,306.106 L311.691,304.981 L311.413,303.833 L311.107,302.038 L310.917,299.625 L310.957,297.246 L311.12,295.515 L311.284,294.391 L311.496,293.258 L311.75,292.153 L312.043,291.084 L312.372,290.056 L312.732,289.075 L313.119,288.147 L313.531,287.279 L313.961,286.476 L314.161,286.135 L314.122,286.201 L314.523,285.55 L315.306,284.38 L316.111,283.293 L316.956,282.259 L317.839,281.276 L318.756,280.346 L319.707,279.467 L320.687,278.64 L321.695,277.865 L322.729,277.142 L323.785,276.471 L324.862,275.853 L326.539,275.008 L328.814,274.076 L331.093,273.371 L333.384,272.878 L335.663,272.598 L337.909,272.53 L339.521,272.615 L340.56,272.733 L341.614,272.905 L342.645,273.128 L343.65,273.402 L344.626,273.726 L345.571,274.099 L346.483,274.523 L347.361,274.995 L348.202,275.515 L349.005,276.084 L349.769,276.701 L350.491,277.368 L351.172,278.083 L351.809,278.849 L352.402,279.666 L352.949,280.536 L353.449,281.46 L353.898,282.441 L354.296,283.481 L354.638,284.581 L354.924,285.744 L355.148,286.97 L355.308,288.263 L355.4,289.622 L355.421,291.049 L355.366,292.545 L355.231,294.111 L355.014,295.746 L354.709,297.451 L354.315,299.226 L353.826,301.071 L353.24,302.985 L352.553,304.97 L351.762,307.024 L350.863,309.147 L349.855,311.339 L348.733,313.599 L347.494,315.929 L346.136,318.326 L345.421,319.534 L345.421,319.534 C344.577,320.96 345.049,322.8 346.475,323.643 C347.901,324.487 349.741,324.015 350.585,322.589 L351.358,321.281 L352.793,318.743 L354.108,316.264 L355.307,313.844 L356.391,311.481 L357.363,309.176 L358.225,306.927 L358.979,304.735 L359.628,302.6 L360.173,300.519 L360.618,298.495 L360.963,296.525 L361.21,294.61 L361.362,292.75 L361.42,290.945 L361.385,289.196 L361.26,287.502 L361.045,285.865 L360.744,284.286 L360.357,282.766 L359.888,281.307 L359.338,279.91 L358.71,278.577 L358.008,277.31 L357.235,276.11 L356.395,274.979 L355.492,273.919 L354.53,272.93 L353.513,272.013 L352.445,271.168 L351.331,270.396 L350.175,269.695 L348.981,269.067 L347.752,268.51 L346.491,268.023 L345.204,267.606 L343.891,267.259 L342.558,266.98 L341.205,266.768 L339.801,266.622 L337.693,266.534 L334.899,266.647 L332.092,267.019 L329.292,267.648 L326.52,268.532 L323.828,269.656 L321.861,270.657 L320.557,271.414 L319.278,272.234 L318.027,273.117 L316.808,274.063 L315.622,275.072 L314.474,276.144 L313.366,277.278 L312.301,278.474 L311.282,279.732 L310.313,281.052 L309.416,282.402 L309.014,283.053 L309.014,283.053 C309.001,283.074 308.988,283.096 308.975,283.118 L308.975,283.118 L308.661,283.664 L308.099,284.729 L307.577,285.85 L307.093,287.023 L306.651,288.245 L306.253,289.512 L305.9,290.821 L305.596,292.166 L305.344,293.545 L305.143,294.985 L304.958,297.179 L304.938,300.125 L305.196,303.07 L305.588,305.269 L305.959,306.753 L306.419,308.225 L306.974,309.677 L307.627,311.104 L308.382,312.499 L309.242,313.854 L310.211,315.162 L311.289,316.414 L312.479,317.604 L313.781,318.723 L315.196,319.766 L316.723,320.725 L318.362,321.596 L320.114,322.374 L321.932,323.04 L322.816,323.317 L322.816,323.317 C322.837,323.323 322.859,323.33 322.881,323.336 L322.881,323.336 L323.416,323.49 L324.531,323.787 L326.335,324.203 L328.917,324.664 L331.616,324.962 L333.671,325.039 L335.071,325.001 L336.469,324.876 L337.857,324.645 L339.226,324.289 L340.563,323.78 L341.846,323.09 L342.938,322.285 L343.297,321.956 L343.297,321.956 C343.336,321.92 343.374,321.883 343.412,321.845 L343.412,321.845 L343.533,321.72 L343.779,321.457 L344.079,321.124 L344.43,320.719 L344.829,320.244 L345.269,319.701 L345.743,319.094 L346.256,318.412 L347.063,317.283 L348.167,315.605 L349.271,313.731 L350.296,311.733 L350.736,310.76 L350.736,310.76 C351.173,309.794 351.068,308.668 350.458,307.799 C349.506,306.444 347.634,306.116 346.279,307.069 L346.279,307.069 L345.679,307.49 L344.526,308.305 L343.427,309.092 L342.373,309.858 L340.88,310.964 L339.044,312.373 L337.357,313.732 L335.8,315.065 L334.352,316.392 L332.996,317.731 L331.714,319.102 L330.488,320.52 L329.297,322.003 L328.121,323.569 L326.938,325.238 L325.722,327.033 L324.452,328.973 L323.448,330.54 L322.749,331.645 L322.39,332.213 L322.39,332.213 C322.385,332.221 322.38,332.229 322.376,332.236 L322.376,332.236 L321.827,333.126 L320.835,334.832 L319.946,336.5 L319.159,338.13 L318.47,339.721 L317.878,341.276 L317.382,342.793 L316.981,344.274 L316.674,345.718 L316.459,347.126 L316.337,348.496 L316.307,349.829 L316.369,351.121 L316.523,352.372 L316.769,353.578 L317.104,354.734 L317.529,355.838 L318.038,356.883 L318.63,357.866 L319.298,358.781 L320.038,359.625 L320.844,360.396 L321.708,361.091 L322.624,361.709 L323.587,362.251 L324.591,362.717 L325.632,363.107 L326.705,363.424 L327.805,363.668 L328.931,363.841 L330.079,363.943 L331.202,363.978 L331.707,363.972 L331.707,363.972 C331.731,363.972 331.754,363.971 331.778,363.971 L331.778,363.971 L332.382,363.949 L333.496,363.876 L334.561,363.762 L335.578,363.607 L336.549,363.411 L337.475,363.175 L338.356,362.897 L339.237,362.557 L340.456,361.961 L341.853,361.036 L343.035,359.934 L343.969,358.672 L344.626,357.293 L344.995,355.852 L345.088,354.403 L344.93,352.988 L344.553,351.629 L343.983,350.34 L343.241,349.126 L342.342,347.993 L341.298,346.945 L340.118,345.99 L338.81,345.136 L337.381,344.394 L335.839,343.774 L334.192,343.289 L332.448,342.951 L330.616,342.771 L328.707,342.762 L326.731,342.936 L324.696,343.302 L322.614,343.87 L320.493,344.651 L318.343,345.653 L316.169,346.886 L314.023,348.325 L313.006,349.088 C313.006,349.088 313.006,349.088 313.006,349.088 C311.681,350.082 311.413,351.963 312.407,353.288 C313.401,354.613 315.282,354.882 316.607,353.887 L316.607,353.887" fill="#26677C"/>
    <path d="M353.751,341.586 L353.915,340.872 L354.271,339.812 L354.678,338.992 L355.137,338.31 L355.633,337.751 L356.156,337.298 L356.697,336.942 L357.246,336.674 L357.792,336.488 L358.321,336.381 L358.816,336.348 L359.256,336.381 L359.62,336.469 L359.886,336.592 L360.038,336.723 L360.076,336.829 L360.022,336.88 L359.927,336.88 L359.837,336.884 L359.752,336.982 L359.62,337.245 L359.365,337.7 L359.08,338.12 L358.83,338.449 L358.493,338.855 L358.091,339.294 L357.621,339.763 L357.082,340.26 L356.47,340.781 L355.784,341.326 L355.021,341.892 L354.179,342.478 L353.258,343.082 L352.254,343.704 L351.166,344.341 L349.992,344.993 L348.73,345.658 L347.378,346.337 L345.935,347.027 L344.398,347.729 L342.766,348.442 L341.037,349.164 L340.145,349.524 L340.145,349.524 C338.609,350.145 337.867,351.894 338.489,353.43 C339.11,354.966 340.858,355.707 342.394,355.086 C342.394,355.086 342.394,355.086 342.394,355.086 L343.349,354.7 L345.168,353.94 L346.893,353.186 L348.527,352.439 L350.073,351.698 L351.532,350.964 L352.907,350.236 L354.201,349.516 L355.415,348.803 L356.552,348.097 L357.615,347.397 L358.604,346.705 L359.524,346.018 L360.375,345.336 L361.161,344.66 L361.883,343.987 L362.543,343.316 L363.143,342.647 L363.684,341.976 L364.192,341.261 L364.83,340.177 L365.427,338.753 L365.744,337.287 L365.74,335.812 L365.394,334.408 L364.741,333.174 L363.86,332.173 L362.835,331.415 L361.723,330.88 L360.556,330.542 L359.351,330.382 L358.121,330.388 L356.877,330.558 L355.632,330.891 L354.402,331.391 L353.208,332.061 L352.07,332.905 L351.014,333.921 L350.063,335.108 L349.239,336.458 L348.563,337.962 L348.067,339.529 L347.903,340.243 C347.533,341.858 348.541,343.468 350.156,343.839 C351.771,344.209 353.381,343.201 353.751,341.586 L353.751,341.586" fill="#26677C"/>
    <path d="M358.351,343.912 L358.214,344.719 L357.966,346.293 L357.753,347.786 L357.577,349.194 L357.436,350.518 L357.33,351.762 L357.258,352.928 L357.22,354.022 L357.215,355.047 L357.243,356.007 L357.305,356.907 L357.403,357.752 L357.537,358.549 L357.714,359.304 L357.938,360.023 L358.22,360.711 L358.571,361.371 L359.006,361.998 L359.754,362.765 L361.043,363.545 L362.626,363.92 L364.135,363.825 L365.467,363.43 L366.655,362.861 L367.755,362.177 L368.802,361.404 L369.817,360.56 L371.277,359.212 L373.164,357.285 L374.944,355.331 L376.17,353.938 L376.915,353.082 L377.592,352.308 L378.191,351.634 L378.699,351.083 L379.092,350.688 L379.317,350.498 L379.204,350.616 L378.372,350.979 L377.047,350.982 L377.099,350.993 L375.94,350.458 L375.473,349.98 L375.402,349.892 L375.505,350.183 L375.751,350.933 L376.071,351.963 L376.457,353.196 L376.907,354.56 L377.427,356 L378.026,357.466 L378.72,358.914 L379.532,360.304 L380.27,361.328 L380.856,361.999 L381.479,362.59 L382.186,363.13 L382.989,363.597 L383.894,363.961 L384.892,364.185 L385.949,364.237 L387.023,364.102 L388.071,363.79 L388.672,363.533 L388.672,363.533 C388.832,363.459 388.985,363.372 389.129,363.272 L389.129,363.272 L389.261,363.181 L390.262,362.046 L390.762,360.643 L390.844,359.505 L390.772,358.499 L390.625,357.521 L390.428,356.522 L390.195,355.484 L389.935,354.4 L389.66,353.272 L389.234,351.504 L388.692,349.041 L388.253,346.544 L388.038,344.726 L387.964,343.57 L387.95,342.432 L388.005,341.353 L388.133,340.346 L388.335,339.424 L388.612,338.598 L388.959,337.872 L389.375,337.246 L389.863,336.708 L390.438,336.241 L391.127,335.832 L391.695,335.581 L392.114,335.431 L392.63,335.275 L393.199,335.138 L393.824,335.024 L394.508,334.934 L395.252,334.873 L396.058,334.842 L396.453,334.839 L396.453,334.839 C398.109,334.823 399.439,333.466 399.422,331.809 C399.405,330.152 398.048,328.823 396.392,328.84 L395.806,328.847 L394.729,328.896 L393.694,328.99 L392.699,329.13 L391.744,329.317 L390.829,329.552 L389.953,329.834 L389.071,330.186 L387.851,330.805 L386.451,331.758 L385.253,332.867 L384.266,334.099 L383.484,335.419 L382.889,336.794 L382.46,338.205 L382.175,339.637 L382.011,341.08 L381.951,342.528 L381.978,343.975 L382.081,345.444 L382.345,347.59 L382.832,350.332 L383.401,352.909 L383.831,354.697 L384.1,355.796 L384.341,356.802 L384.544,357.697 L384.698,358.455 L384.796,359.038 L384.845,359.377 L384.903,359.35 L385.215,358.803 L385.842,358.25 L385.711,358.341 L386.168,358.08 L386.163,358.102 L386.036,358.184 L385.984,358.237 L385.966,358.282 L385.935,358.319 L385.859,358.328 L385.726,358.285 L385.54,358.173 L385.314,357.983 L385.092,357.757 L384.693,357.245 L384.122,356.303 L383.576,355.185 L383.068,353.958 L382.604,352.68 L382.183,351.404 L381.8,350.179 L381.443,349.037 L381.095,348.004 L380.801,347.274 L380.485,346.682 L379.789,345.855 L378.413,345.139 L378.361,345.127 L378.361,345.127 C377.925,345.029 377.473,345.03 377.037,345.13 L377.037,345.13 L376.007,345.538 L375.342,346.003 L374.82,346.474 L374.287,347.017 L373.708,347.647 L373.075,348.358 L372.391,349.141 L371.663,349.976 L370.506,351.293 L368.872,353.092 L367.196,354.813 L365.966,355.96 L365.21,356.598 L364.525,357.12 L363.945,357.508 L363.526,357.753 L363.337,357.878 L363.43,357.974 L363.717,358.173 L363.847,358.377 L363.827,358.426 L363.801,358.431 L363.735,358.349 L363.645,358.169 L363.545,357.891 L363.448,357.516 L363.361,357.044 L363.29,356.478 L363.24,355.819 L363.215,355.068 L363.216,354.226 L363.247,353.293 L363.309,352.268 L363.403,351.15 L363.531,349.938 L363.693,348.631 L363.893,347.228 L364.131,345.717 L364.267,344.91 C364.267,344.91 364.267,344.91 364.267,344.91 C364.542,343.276 363.441,341.728 361.807,341.453 C360.174,341.177 358.626,342.278 358.35,343.912 L358.351,343.912" fill="#26677C"/>
    <path d="M387.155,322.962 L386.026,322.235 L383.95,320.811 L382.046,319.386 L380.286,317.946 L378.667,316.494 L377.185,315.033 L375.839,313.563 L374.623,312.089 L373.535,310.611 L372.57,309.132 L371.725,307.652 L370.995,306.174 L370.378,304.697 L369.867,303.222 L369.461,301.749 L369.156,300.279 L368.949,298.811 L368.836,297.345 L368.816,295.881 L368.887,294.419 L369.047,292.958 L369.293,291.499 L369.626,290.043 L370.043,288.591 L370.543,287.144 L371.125,285.704 L371.787,284.271 L372.528,282.849 L373.345,281.439 L374.238,280.042 L375.204,278.662 L376.242,277.3 L377.348,275.958 L378.522,274.639 L379.76,273.345 L381.06,272.077 L382.421,270.839 L383.839,269.631 L385.312,268.456 L386.838,267.316 L388.414,266.214 L390.038,265.15 L391.707,264.126 L393.418,263.146 L395.169,262.21 L396.957,261.321 L398.78,260.479 L400.635,259.688 L402.52,258.948 L404.431,258.262 L406.367,257.631 L408.324,257.057 L410.3,256.541 L412.293,256.086 L414.3,255.692 L416.317,255.362 L418.344,255.096 L420.376,254.898 L422.413,254.767 L424.45,254.705 L426.485,254.715 L428.517,254.797 L430.543,254.953 L432.559,255.184 L433.535,255.324 L433.476,255.315 L434.667,255.509 L436.932,255.951 L439.132,256.473 L441.294,257.08 L443.416,257.767 L445.496,258.533 L447.531,259.375 L449.519,260.29 L451.457,261.276 L453.343,262.33 L455.174,263.449 L456.948,264.631 L458.662,265.873 L460.314,267.171 L461.901,268.525 L463.421,269.929 L464.872,271.382 L466.25,272.882 L467.554,274.424 L468.781,276.006 L469.93,277.626 L470.997,279.28 L471.98,280.965 L472.878,282.68 L473.688,284.42 L474.408,286.183 L475.037,287.966 L475.571,289.767 L476.011,291.584 L476.352,293.413 L476.595,295.253 L476.736,297.101 L476.774,298.956 L476.708,300.815 L476.534,302.677 L476.25,304.54 L475.855,306.403 L475.345,308.264 L474.719,310.122 L473.972,311.975 L473.101,313.822 L472.104,315.661 L470.978,317.49 L469.717,319.308 L468.32,321.111 L466.782,322.898 L465.099,324.665 L463.27,326.411 L461.289,328.133 L459.154,329.827 L456.862,331.49 L454.409,333.119 L451.793,334.712 L449.01,336.265 L446.059,337.774 L442.935,339.237 L439.637,340.651 L436.161,342.012 L432.506,343.318 L428.668,344.564 L424.646,345.749 L420.436,346.868 L416.037,347.92 L411.445,348.901 L409.094,349.361 L409.094,349.361 C407.468,349.679 406.407,351.255 406.726,352.881 C407.044,354.507 408.62,355.567 410.246,355.249 L412.7,354.769 L417.433,353.756 L421.98,352.667 L426.342,351.504 L430.524,350.27 L434.526,348.967 L438.351,347.598 L442.003,346.165 L445.483,344.67 L448.794,343.115 L451.938,341.502 L454.917,339.835 L457.734,338.114 L460.39,336.343 L462.889,334.523 L465.231,332.657 L467.418,330.746 L469.452,328.795 L471.336,326.804 L473.069,324.778 L474.654,322.717 L476.093,320.627 L477.386,318.509 L478.535,316.367 L479.542,314.204 L480.409,312.025 L481.137,309.833 L481.728,307.633 L482.184,305.427 L482.509,303.219 L482.704,301.015 L482.773,298.817 L482.718,296.629 L482.542,294.455 L482.248,292.298 L481.84,290.161 L481.32,288.048 L480.692,285.961 L479.958,283.904 L479.123,281.878 L478.188,279.887 L477.158,277.934 L476.034,276.02 L474.82,274.149 L473.518,272.323 L472.131,270.544 L470.662,268.815 L469.113,267.139 L467.488,265.518 L465.788,263.954 L464.017,262.45 L462.176,261.01 L460.269,259.634 L458.297,258.326 L456.264,257.089 L454.171,255.926 L452.022,254.838 L449.819,253.829 L447.563,252.901 L445.259,252.058 L442.908,251.301 L440.513,250.635 L438.076,250.061 L435.631,249.587 L434.441,249.393 L434.441,249.393 C434.421,249.39 434.402,249.387 434.382,249.384 L434.382,249.384 L433.236,249.222 L430.997,248.97 L428.754,248.802 L426.508,248.715 L424.264,248.708 L422.023,248.779 L419.788,248.927 L417.56,249.148 L415.344,249.441 L413.14,249.805 L410.952,250.238 L408.782,250.737 L406.631,251.301 L404.503,251.928 L402.4,252.616 L400.324,253.364 L398.277,254.171 L396.262,255.033 L394.281,255.95 L392.337,256.92 L390.431,257.942 L388.567,259.014 L386.746,260.133 L384.971,261.3 L383.244,262.512 L381.568,263.768 L379.945,265.066 L378.378,266.406 L376.868,267.785 L375.42,269.202 L374.034,270.657 L372.715,272.147 L371.463,273.671 L370.283,275.229 L369.178,276.819 L368.149,278.439 L367.2,280.089 L366.335,281.766 L365.556,283.471 L364.867,285.2 L364.271,286.952 L363.772,288.726 L363.374,290.519 L363.08,292.329 L362.893,294.152 L362.817,295.987 L362.856,297.829 L363.011,299.676 L363.287,301.523 L363.684,303.367 L364.205,305.205 L364.851,307.032 L365.624,308.846 L366.524,310.644 L367.553,312.423 L368.712,314.181 L370.002,315.916 L371.423,317.626 L372.978,319.31 L374.667,320.967 L376.492,322.595 L378.456,324.193 L380.558,325.76 L382.779,327.281 L383.908,328.007 C383.908,328.007 383.908,328.007 383.908,328.007 C385.301,328.904 387.158,328.501 388.054,327.108 C388.951,325.715 388.548,323.858 387.155,322.962 L387.155,322.962" fill="#26677C"/>
  </g>
</svg>
